PathFileType	4	(X/Y/Z)	C:/Users/beibeiliu/ov580/test_trc/User1\sequence.30_training_dense_right.trc
DataRate	CameraRate	NumFrames	NumMarkers	Units	OrigDataRate	OrigDataStartFrame	OrigNumFrames
120	120	12	19	mm	120	114	227
Frame#	Time	ThumbCMC			ThumbMCP			ThumbIP			ThumbTip			IndexMCP			IndexPIP			IndexTip			MiddleMCP			MiddlePIP			MiddleTip			RingMCP			RingPIP			RingTip			PinkyMCP			PinkyPIP			PinkyTip			BackHand1			BackHand2			BackHand3	
		X0	Y0	Z0	X1	Y1	Z1	X2	Y2	Z2	X3	Y3	Z3	X4	Y4	Z4	X5	Y5	Z5	X6	Y6	Z6	X7	Y7	Z7	X8	Y8	Z8	X9	Y9	Z9	X10	Y10	Z10	X11	Y11	Z11	X12	Y12	Z12	X13	Y13	Z13	X14	Y14	Z14	X15	Y15	Z15	X16	Y16	Z16	X17	Y17	Z17	X18	Y18	Z18	
113	0.941667	130.139	-15.5415	76.404	109.225	-24.1746	58.5089	93.4228	-23.6616	33.6547	78.0384	-28.2025	21.673	163.199	-14.2101	-4.49728	161.357	-14.7254	-29.1758	171.312	-13.4394	-57.7804	198.895	-13.9183	-3.15245	208.16	-10.4437	-31.0587	215.093	-5.52364	-51.466	215.71	-32.9037	3.35204	229.546	-43.023	-19.2578	234.195	-56.7041	-43.7818	234.156	-51.5604	29.9889	243.042	-62.8012	13.78	255.139	-72.9076	-0.483029	202.877	-14.7406	56.3629	195.535	-9.12564	93.4075	166.263	-3.86813	68.1158	
114	0.95	132.388	-14.8662	73.4614	113.065	-22.9337	57.4675	98.6232	-24.4545	36.127	80.816	-25.5838	18.0144	164.248	-14.1835	-5.36645	167.536	-13.5494	-31.4637	176.417	-11.2343	-55.4167	202.029	-17.0155	-6.17471	205.396	-18.1151	-29.7246	216.492	-15.882	-55.0693	215.44	-37.2647	2.2267	225.844	-54.342	-22.065	228.242	-72.1435	-36.5434	232.899	-56.9414	32.4176	237.026	-75.7827	15.8485	239.214	-92.6778	1.06096	205.598	-14.6141	61.0406	197.18	-6.91254	88.3294	167.021	-3.35999	67.7274	
115	0.958333	133.261	-12.5869	77.4314	111.738	-19.3633	57.7066	96.7157	-20.0474	36.6769	83.489	-24.8697	18.5179	169.048	-14.0802	-3.15253	170.463	-12.0922	-30.9854	176.399	-8.82479	-57.0471	199.202	-20.8771	-7.58601	209.273	-26.47	-35.0651	215.944	-28.4925	-62.5993	216.757	-42.4287	6.70307	218.185	-62.1234	-19.8272	215.764	-89.4078	-30.044	226.716	-62.6212	29.8208	223.532	-84.0167	16.6497	215.024	-102.94	3.4262	205.743	-16.4983	60.3211	198.774	-8.93845	90.9747	173.259	-1.08514	65.1063	
116	0.966667	139.374	-11.1727	73.5952	114.539	-17.1239	55.0982	96.9656	-16.0219	33.9932	84.2759	-19.9045	20.921	170.477	-13.9058	-3.92773	172.416	-11.0656	-32.7149	184.481	-11.1184	-56.8025	196.891	-26.1468	-11.6121	205.709	-37.5368	-37.5517	212.251	-46.7958	-62.8041	211.449	-50.5585	0.859982	209.631	-75.9725	-16.8966	196.077	-101.561	-15.6945	219.448	-67.4309	26.5069	213.034	-87.7039	19.3081	189.056	-106.209	11.9748	206.891	-18.6255	53.9312	201.319	-7.7485	91.3985	172.952	0.57019	66.122	
117	0.975	141.921	-9.20037	73.5435	115.9	-12.2741	56.8427	103.483	-14.1868	33.2481	83.5136	-12.7581	18.2529	169.126	-12.2239	-8.01489	173.243	-12.7885	-31.4297	184.989	-13.2364	-55.4197	194.653	-31.8191	-12.228	195.475	-43.075	-35.0283	198.809	-62.6056	-62.9421	206.026	-59.2655	1.87297	192.771	-86.09	-9.94265	170.168	-107.912	2.45349	211.802	-77.1757	26.7876	197.433	-93.5489	22.3089	166.171	-103.872	26.6437	207.413	-22.0296	52.381	207.202	-15.1114	89.867	177.542	-2.12381	60.7191	
118	0.983333	143.026	-3.44072	74.5827	120.24	-8.71877	51.8236	103.49	-6.84987	34.3074	87.4192	-6.10369	16.8781	170.568	-13.7051	-5.07548	175.17	-14.7049	-30.2371	185.25	-16.0278	-55.2884	191.344	-37.2687	-10.5916	189.748	-52.765	-36.243	187.332	-78.2105	-58.8924	196.083	-69.6953	1.14431	174.462	-95.7129	-1.29119	151.573	-103.821	16.4273	203.522	-79.3008	28.6202	178.401	-99.1139	30.4419	152.959	-95.7673	38.5224	210.209	-27.2292	53.1417	209.468	-19.8632	87.2735	183.11	-2.47688	59.4475	
119	0.991667	145.545	-2.08926	71.2696	121.428	-3.70437	51.8862	107.407	-1.98992	32.3453	89.4698	-0.320345	16.8383	170.975	-14.7469	-5.89368	178.633	-19.5609	-32.1499	187.093	-22.0906	-54.8426	188.449	-44.1259	-15.4633	181.66	-61.9556	-38.255	172.079	-87.2815	-53.4113	184.222	-71.0635	3.66362	157.713	-96.3224	5.10171	137.703	-96.9075	24.2919	194.014	-85.6654	29.7152	163.586	-95.2583	32.6186	140.153	-85.7682	46.3949	206.257	-33.3918	51.7096	208.394	-22.8372	81.9428	182.221	-4.43639	58.6584	
120	1	147.043	1.71207	70.8042	122.408	2.25635	48.7543	108.636	3.19599	29.0997	91.6856	6.43745	14.5776	173.004	-19.3223	-11.3304	176.521	-21.349	-33.4772	186.039	-28.3724	-54.3374	180.147	-48.6627	-17.3291	172.607	-67.4618	-35.8702	153.711	-91.8757	-52.1906	173.081	-75.7551	5.1477	145.606	-94.4624	6.64679	123.442	-94.7183	28.6045	180.865	-89.2029	30.183	153.594	-95.149	33.5668	129.115	-79.1958	49.4862	202.587	-39.2662	45.6556	207.169	-27.1751	83.7188	186.156	-6.58762	56.9043	
121	1.00833	149.477	3.36113	69.6427	124.943	3.53576	53.9381	111.246	7.75527	26.6637	94.6375	12.77	13.1451	170.872	-21.441	-8.10991	173.714	-24.5181	-36.0512	183.712	-33.1459	-57.4919	175.614	-54.0782	-11.7122	160.733	-69.0923	-34.9843	135.097	-93.7105	-48.6686	163.85	-79.0484	6.77827	131.196	-91.4275	9.09021	106.606	-86.8909	26.7219	166.595	-90.3679	30.1266	140.788	-90.4516	33.0241	117.599	-75.4731	49.2059	199.745	-45.6081	46.5465	205.155	-37.5524	81.6323	187.246	-13.9952	56.1913	
122	1.01667	153.616	6.59962	68.6233	128.704	9.72458	50.5525	117.153	11.9919	26.1682	104.149	16.6191	7.76474	170.134	-22.0019	-11.0644	173.296	-29.1764	-35.3616	177.724	-37.334	-53.3474	168.188	-54.1418	-11.39	150.042	-70.4043	-31.3998	121.15	-85.7416	-46.7675	152.197	-78.2726	7.29701	120.061	-84.3586	6.99155	94.5921	-81.5392	24.1712	152.547	-86.6231	29.2632	130.542	-85.9759	32.9919	106.961	-69.5734	50.1608	196.647	-52.9375	46.5997	203.172	-43.5366	85.411	188.741	-11.6013	59.2252	
123	1.025	160.822	8.62086	70.6117	137.202	15.6886	45.635	127.266	16.2991	25.1487	112.396	27.5743	6.50397	172.023	-24.811	-9.79956	172.532	-32.9817	-31.7429	178.05	-49.4011	-55.4088	161.159	-57.5737	-10.6773	138.976	-67.3082	-31.2406	111.906	-76.8097	-44.4493	142.546	-74.6434	6.88811	111.93	-74.8538	5.95687	87.7371	-70.4106	19.6347	145.012	-87.7113	33.0952	116.405	-79.6069	37.6849	96.7691	-61.9537	46.32	191.697	-58.7333	49.9691	201.027	-47.5047	85.0656	190.767	-17.1793	59.2528	
124	1.03333	169.6	5.42306	68.2897	150.037	16.6352	46.414	138.52	20.8287	20.1631	127.807	26.593	1.62507	174.213	-31.2448	-11.298	172.336	-41.2722	-31.452	173.9	-54.6317	-52.1981	155.564	-56.2132	-13.0826	136.13	-65.3974	-26.7862	105.806	-72.0495	-43.5535	136.89	-72.1678	10.3715	106.786	-68.5562	5.99454	81.2117	-54.8211	15.3198	131.689	-82.8609	34.4991	109.151	-70.4507	37.6981	94.5501	-49.2523	43.6965	185.012	-61.399	50.5355	197.214	-50.3497	85.9436	194.332	-21.7259	58.3234	
